<?xml version="1.0" encoding="UTF-8"?>
<svg width="362px" height="123px" viewBox="0 0 362 123" version="1.1" xmlns="http://www.w3.org/2000/svg" xmlns:xlink="http://www.w3.org/1999/xlink">
    <!-- Generator: Sketch 61.2 (89653) - https://sketch.com -->
    <title>Logo-White</title>
    <desc>Created with Sketch.</desc>
    <g id="Finalized-Brand" stroke="none" stroke-width="1" fill="none" fill-rule="evenodd">
        <g id="Artboard" transform="translate(-117.000000, -529.000000)" fill="#FFFFFF" fill-rule="nonzero">
            <g id="Logo-White" transform="translate(117.000000, 529.000000)">
                <path d="M124.505438,96.7868852 C125.30595,96.7868852 125.907388,96.5831455 126.30975,96.175666 C126.712113,95.7681865 126.95964,95.4048156 127.052331,95.0855533 L127.052331,95.0855533 L132.602723,80.7313525 L165.762884,80.7313525 L171.311697,95.0855533 C171.45916,95.4048156 171.723539,95.7681865 172.104836,96.175666 C172.486132,96.5831455 173.070717,96.7868852 173.858589,96.7868852 L173.858589,96.7868852 L179.009253,96.7868852 C179.561185,96.7868852 180.042282,96.5820953 180.452545,96.1725154 C180.862807,95.7629355 181.067938,95.2829918 181.067938,94.7326844 C181.067938,94.4092213 181.006846,94.0647541 180.884663,93.6992828 L180.884663,93.6992828 L155.870766,28.4752561 C155.61376,27.7905225 155.23773,27.2423156 154.742676,26.8306352 C154.247623,26.4189549 153.545068,26.2131148 152.635012,26.2131148 L152.635012,26.2131148 L145.729015,26.2131148 C144.818959,26.2131148 144.116405,26.4189549 143.621351,26.8306352 C143.126298,27.2423156 142.750268,27.7905225 142.493261,28.4752561 L142.493261,28.4752561 L117.479365,93.6992828 C117.357181,94.0647541 117.296089,94.4092213 117.296089,94.7326844 C117.296089,95.2829918 117.501484,95.7629355 117.912273,96.1725154 C118.323062,96.5820953 118.804423,96.7868852 119.356355,96.7868852 L119.356355,96.7868852 L124.505438,96.7868852 Z M162.824162,72.1301742 L135.539866,72.1301742 L149.173324,36.3376153 L162.824162,72.1301742 Z M197.739008,96.7868852 C198.425763,96.7868852 198.984015,96.5726434 199.413764,96.1441598 C199.843512,95.7156762 200.058387,95.1590676 200.058387,94.474334 L200.058387,94.474334 L200.058387,27.5174693 C200.058387,26.8327357 199.843512,26.276127 199.413764,25.8476434 C198.984015,25.4191598 198.425763,25.204918 197.739008,25.204918 L197.739008,25.204918 L192.950155,25.204918 C192.2634,25.204918 191.705148,25.4191598 191.275399,25.8476434 C190.845651,26.276127 190.630777,26.8327357 190.630777,27.5174693 L190.630777,27.5174693 L190.630777,94.474334 C190.630777,95.1590676 190.845651,95.7156762 191.275399,96.1441598 C191.705148,96.5726434 192.2634,96.7868852 192.950155,96.7868852 L192.950155,96.7868852 L197.739008,96.7868852 Z M234.376052,97.795082 C238.429171,97.795082 241.792375,97.0767418 244.465664,95.6400615 C247.138953,94.2033811 249.311922,92.3865266 250.984571,90.189498 L250.984571,90.189498 L250.984571,94.474334 C250.984571,95.1590676 251.199445,95.7156762 251.629194,96.1441598 C252.058943,96.5726434 252.617195,96.7868852 253.30395,96.7868852 L253.30395,96.7868852 L257.923747,96.7868852 C258.610502,96.7868852 259.168754,96.5726434 259.598503,96.1441598 C260.028251,95.7156762 260.243126,95.1590676 260.243126,94.474334 L260.243126,94.474334 L260.243126,27.5174693 C260.243126,26.8327357 260.028251,26.276127 259.598503,25.8476434 C259.168754,25.4191598 258.610502,25.204918 257.923747,25.204918 L257.923747,25.204918 L253.019557,25.204918 C252.332802,25.204918 251.77455,25.4191598 251.344802,25.8476434 C250.915053,26.276127 250.700179,26.8327357 250.700179,27.5174693 L250.700179,27.5174693 L250.700179,50.7122951 C249.02753,48.6328893 246.87036,46.8863986 244.22867,45.4728227 C241.58698,44.0592469 238.302774,43.352459 234.376052,43.352459 C230.655777,43.352459 227.446355,44.0140881 224.747787,45.3373463 C222.049219,46.6606045 219.835171,48.4543545 218.105643,50.7185963 C216.376116,52.9828381 215.088976,55.5631916 214.244225,58.4596568 C213.399475,61.3561219 212.909688,64.3775615 212.774864,67.5239754 C212.707453,68.6203893 212.673747,69.6306865 212.673747,70.5548668 C212.673747,71.4790471 212.707453,72.4956455 212.774864,73.6046619 C212.922327,76.8014857 213.418434,79.8512807 214.263185,82.7540471 C215.107936,85.6568135 216.395075,88.237167 218.124603,90.4951076 C219.85413,92.7530482 222.065018,94.5341957 224.757267,95.8385502 C227.449515,97.1429047 230.655777,97.795082 234.376052,97.795082 Z M236.442637,89.6601947 C233.038354,89.6601947 230.324776,88.9061475 228.301903,87.3980533 C226.27903,85.889959 224.828365,83.9071721 223.949908,81.4496926 C223.071451,78.9922131 222.564812,76.3393955 222.429988,73.4912398 C222.337298,71.5462602 222.337298,69.6012807 222.429988,67.6563012 C222.564812,64.8081455 223.071451,62.1553279 223.949908,59.6978484 C224.828365,57.2403689 226.27903,55.257582 228.301903,53.7494877 C230.324776,52.2413934 233.038354,51.4873463 236.442637,51.4873463 C239.724736,51.4873463 242.390652,52.2350922 244.440385,53.730584 C246.490117,55.2260758 248.028996,57.108043 249.057022,59.3764857 C250.085048,61.6449283 250.632767,63.9721824 250.700179,66.358248 C250.78023,67.4546619 250.820256,68.7495645 250.820256,70.2429559 C250.820256,71.7363473 250.78023,73.0375512 250.700179,74.1465676 C250.632767,76.6124488 250.105061,79.0331711 249.117061,81.4087346 C248.12906,83.7842982 246.610194,85.7534324 244.560462,87.3161373 C242.510729,88.8788422 239.804788,89.6601947 236.442637,89.6601947 Z M296.29727,97.795082 C299.743685,97.795082 302.82987,97.3361424 305.555824,96.4182633 C308.281778,95.5003842 310.579038,94.3378074 312.447601,92.9305328 C314.316165,91.5232582 315.75182,90.0928791 316.754567,88.6393955 C317.757314,87.1859119 318.292393,85.9571721 318.359804,84.9531762 C318.427216,84.3356557 318.241834,83.8389088 317.803659,83.4629355 C317.365484,83.0869621 316.836725,82.8989754 316.217381,82.8989754 L316.217381,82.8989754 L311.319511,82.8989754 C310.565345,82.8989754 310.013413,82.9829918 309.663715,83.1510246 C309.314018,83.3190574 308.835817,83.8147541 308.229113,84.6381148 C307.892055,85.1380123 307.229526,85.8395492 306.241526,86.7427254 C305.253525,87.6459016 303.950587,88.4650615 302.33271,89.2002049 C300.714832,89.9353484 298.690379,90.3029201 296.259351,90.3029201 C293.453345,90.3029201 291.034956,89.5625256 289.004183,88.0817367 C286.97341,86.6009477 285.415308,84.6696209 284.329877,82.2877561 C283.244446,79.9058914 282.646958,77.3601947 282.537414,74.650666 L282.537414,74.650666 L282.537414,73.7369877 L317.437109,73.7369877 C318.123864,73.7369877 318.695809,73.5227459 319.152943,73.0942623 C319.610078,72.6657787 319.838645,72.1091701 319.838645,71.4244365 L319.838645,71.4244365 L319.838645,69.6285861 C319.838645,64.3271516 318.920163,59.7051998 317.083198,55.7627305 C315.246234,51.8202613 312.587691,48.7662654 309.10757,46.6007428 C305.627449,44.4352203 301.351029,43.352459 296.27831,43.352459 C291.643766,43.352459 287.624353,44.3333504 284.22007,46.2951332 C280.815787,48.256916 278.149871,51.029457 276.222322,54.6127561 C274.294773,58.1960553 273.181429,62.386373 272.882291,67.183709 C272.827519,68.0154713 272.800133,69.1265881 272.800133,70.5170594 C272.800133,71.9075307 272.827519,73.0249488 272.882291,73.8693135 C273.320466,81.2585553 275.590339,87.0934939 279.69191,91.3741291 C283.793481,95.6547643 289.328601,97.795082 296.29727,97.795082 Z M310.181941,66.7867316 L282.537414,66.7867316 L282.537414,66.4401639 C282.537414,63.432377 283.072494,60.7480533 284.142652,58.3871926 C285.21281,56.026332 286.777232,54.1632684 288.835917,52.798002 C290.894603,51.4327357 293.3754,50.7501025 296.27831,50.7501025 C299.18122,50.7501025 301.675447,51.4327357 303.760992,52.798002 C305.846536,54.1632684 307.438081,56.026332 308.535625,58.3871926 C309.633169,60.7480533 310.181941,63.432377 310.181941,66.4401639 L310.181941,66.4401639 L310.181941,66.7867316 Z M339.244795,96.7868852 C339.931551,96.7868852 340.503495,96.5726434 340.96063,96.1441598 C341.417764,95.7156762 341.646332,95.1590676 341.646332,94.474334 L341.646332,94.474334 L341.646332,64.8648566 C341.646332,61.2101434 342.6999,58.3323194 344.807038,56.2313845 C346.914175,54.1304495 349.800495,53.0799821 353.465998,53.0799821 L353.465998,53.0799821 L359.44298,53.0799821 C360.129735,53.0799821 360.687987,52.8657403 361.117735,52.4372567 C361.547484,52.0087731 361.762358,51.4521644 361.762358,50.7674308 L361.762358,50.7674308 L361.762358,46.673207 C361.762358,45.9884734 361.547484,45.4318648 361.117735,45.0033811 C360.687987,44.5748975 360.129735,44.3606557 359.44298,44.3606557 L359.44298,44.3606557 L355.493085,44.3606557 C352.185706,44.3606557 349.351261,44.9319672 346.98975,46.0745902 C344.628239,47.2172131 342.752302,48.9206455 341.361939,51.1848873 L341.361939,51.1848873 L341.361939,46.755123 C341.361939,46.0703893 341.133372,45.5001281 340.676237,45.0443391 C340.219103,44.5885502 339.647685,44.3606557 338.961983,44.3606557 L338.961983,44.3606557 L334.329546,44.3606557 C333.642791,44.3606557 333.084539,44.5885502 332.65479,45.0443391 C332.225042,45.5001281 332.010167,46.0703893 332.010167,46.755123 L332.010167,46.755123 L332.010167,94.474334 C332.010167,95.1590676 332.225042,95.7156762 332.65479,96.1441598 C333.084539,96.5726434 333.642791,96.7868852 334.329546,96.7868852 L334.329546,96.7868852 L339.244795,96.7868852 Z" id="Alder"></path>
                <g id="Group-6-Copy-6">
                    <path d="M47.2723464,0 C69.3836052,0 94.5446927,32.1660253 94.5446927,62.450171 C94.5446927,92.7343167 77.5910772,105.860656 47.2723464,105.860656 C16.9536155,105.860656 0,92.7343167 0,62.450171 C0,32.1660253 25.1610876,0 47.2723464,0 Z M47.2723464,9.51984314 C40.0362902,9.51984314 30.7091427,15.4705847 22.9153556,25.6512217 C14.6061311,36.5051488 9.53071499,50.1572623 9.53071499,62.450171 C9.53071499,74.8343158 12.6649347,83.1734248 18.5680826,88.3698473 C24.4894944,93.582347 33.9655922,96.3408126 47.2723464,96.3408126 C60.5791006,96.3408126 70.0551984,93.582347 75.9766101,88.3698473 C81.879758,83.1734248 85.0139777,74.8343158 85.0139777,62.450171 C85.0139777,50.1572623 79.9385616,36.5051488 71.6293372,25.6512217 C63.83555,15.4705847 54.5084025,9.51984314 47.2723464,9.51984314 Z" id="Oval"></path>
                    <path d="M47.1683378,22.1803279 C49.7301672,22.1749269 51.8184508,24.2405174 51.8854068,26.817532 L51.8870527,26.9350158 L52.075419,118.225418 C52.0808378,120.856847 49.9769999,122.994496 47.3763549,123 C44.8145256,123.005401 42.7262419,120.939811 42.659286,118.362796 L42.65764,118.245312 L42.4692737,26.9549099 C42.4638549,24.3234805 44.5676929,22.1858321 47.1683378,22.1803279 Z" id="Path-2"></path>
                    <path d="M27.6912868,35.6658235 C29.5283807,33.8466301 32.4881864,33.8168072 34.3620904,35.576355 L34.4548705,35.6658235 L47.5251397,48.6089915 L60.5954088,35.6658235 C62.4325027,33.8466301 65.3923084,33.8168072 67.2662124,35.576355 L67.3589925,35.6658235 C69.1960863,37.485017 69.2262026,40.4159828 67.4493414,42.2716278 L67.3589925,42.3635038 L47.5251397,62.0040984 L27.6912868,42.3635038 C25.8235748,40.5139905 25.8235748,37.5153369 27.6912868,35.6658235 Z" id="Path-3"></path>
                    <path d="M18.5869525,54.3167357 C20.4190946,52.4984959 23.3709224,52.4686887 25.2397755,54.227314 L25.3323055,54.3167357 L47.5251397,76.3414236 L69.7179739,54.3167357 C71.550116,52.4984959 74.5019438,52.4686887 76.3707969,54.227314 L76.4633269,54.3167357 C78.2954689,56.1349754 78.3255041,59.0644047 76.5534322,60.9190769 L76.4633269,61.0109047 L47.5251397,89.7295082 L18.5869525,61.0109047 C16.7242747,59.162361 16.7242747,56.1652794 18.5869525,54.3167357 Z" id="Path-3-Copy"></path>
                </g>
            </g>
        </g>
    </g>
</svg>